TITLE: A034_A035
FCM: NON-DROP FRAME

000001  A034C001_220327_R4CQ V     C        17:37:46:08 17:40:10:17 00:00:00:00 00:02:24:09 
* FROM CLIP NAME: A034C001_220327_R4CQ.mxf

000002  A034C002_220327_R4CQ V     C        17:42:42:14 17:45:10:00 00:02:24:09 00:04:51:20 
* FROM CLIP NAME: A034C002_220327_R4CQ.mxf

000003  A034C003_220327_R4CQ V     C        18:04:25:04 18:06:02:15 00:04:51:20 00:06:29:06 
* FROM CLIP NAME: A034C003_220327_R4CQ.mxf

000004  A034C004_220327_R4CQ V     C        18:06:14:15 18:07:50:17 00:06:29:06 00:08:05:08 
* FROM CLIP NAME: A034C004_220327_R4CQ.mxf

000005  A034C005_220327_R4CQ V     C        18:33:24:14 18:35:04:08 00:08:05:08 00:09:45:02 
* FROM CLIP NAME: A034C005_220327_R4CQ.mxf

000006  A035C001_220327_R4CQ V     C        18:37:59:16 18:39:30:20 00:09:45:02 00:11:16:06 
* FROM CLIP NAME: A035C001_220327_R4CQ.mxf

000007  A035C002_220327_R4CQ V     C        19:11:46:12 19:13:43:08 00:11:16:06 00:13:13:02 
* FROM CLIP NAME: A035C002_220327_R4CQ.mxf

000008  A035C003_220327_R4CQ V     C        19:15:47:18 19:17:52:19 00:13:13:02 00:15:18:03 
* FROM CLIP NAME: A035C003_220327_R4CQ.mxf

000009  A035C005_220327_R4CQ V     C        20:25:16:06 20:27:23:03 00:15:18:03 00:17:25:00 
* FROM CLIP NAME: A035C005_220327_R4CQ.mxf

000010  A035C004_220327_R4CQ V     C        19:20:01:15 19:22:10:08 00:17:25:00 00:19:33:18 
* FROM CLIP NAME: A035C004_220327_R4CQ.mxf
